<svg style="position: absolute; width: 0; height: 0; overflow: hidden;" version="1.1" xmlns="http://www.w3.org/2000/svg"
     xmlns:xlink="http://www.w3.org/1999/xlink">
    <defs>
        <symbol id="lnr-magnifier" viewBox="0 0 1024 1024">
            <title>magnifier</title>
            <path class="path1"
                  d="M966.070 981.101l-304.302-331.965c68.573-71.754 106.232-165.549 106.232-265.136 0-102.57-39.942-199-112.47-271.53s-168.96-112.47-271.53-112.47-199 39.942-271.53 112.47-112.47 168.96-112.47 271.53 39.942 199.002 112.47 271.53 168.96 112.47 271.53 112.47c88.362 0 172.152-29.667 240.043-84.248l304.285 331.947c5.050 5.507 11.954 8.301 18.878 8.301 6.179 0 12.378-2.226 17.293-6.728 10.421-9.555 11.126-25.749 1.571-36.171zM51.2 384c0-183.506 149.294-332.8 332.8-332.8s332.8 149.294 332.8 332.8-149.294 332.8-332.8 332.8-332.8-149.294-332.8-332.8z"></path>
        </symbol>
        <symbol id="lnr-home" viewBox="0 0 1024 1024">
            <title>home</title>
            <path class="path1"
                  d="M1017.382 622.826l-452.050-499.634c-14.051-15.533-32.992-24.086-53.333-24.086-0.002 0 0 0 0 0-20.339 0-39.282 8.555-53.334 24.086l-452.050 499.634c-9.485 10.485-8.675 26.674 1.808 36.158 4.899 4.432 11.043 6.616 17.168 6.616 6.982 0 13.938-2.838 18.992-8.426l109.016-120.491v410.517c0 42.347 34.453 76.8 76.8 76.8h563.2c42.347 0 76.8-34.453 76.8-76.8v-410.517l109.018 120.493c9.485 10.483 25.674 11.296 36.158 1.808 10.483-9.485 11.293-25.675 1.806-36.158zM614.4 972.8h-204.8v-230.4c0-14.115 11.485-25.6 25.6-25.6h153.6c14.115 0 25.6 11.485 25.6 25.6v230.4zM819.2 947.2c0 14.115-11.485 25.6-25.6 25.6h-128v-230.4c0-42.349-34.451-76.8-76.8-76.8h-153.6c-42.347 0-76.8 34.451-76.8 76.8v230.4h-128c-14.115 0-25.6-11.485-25.6-25.6v-467.106l291.832-322.552c4.222-4.667 9.68-7.237 15.368-7.237s11.146 2.57 15.366 7.235l291.834 322.552v467.107z"></path>
        </symbol>
        <symbol id="lnr-plus-circle" viewBox="0 0 1024 1024">
            <title>plus-circle</title>
            <path class="path1"
                  d="M830.338 193.664c-91.869-91.869-214.016-142.464-343.938-142.464s-252.067 50.595-343.936 142.464-142.464 214.014-142.464 343.936 50.595 252.069 142.464 343.938 214.014 142.462 343.936 142.462 252.069-50.594 343.938-142.462 142.462-214.016 142.462-343.938-50.594-252.067-142.462-343.936zM486.4 972.8c-239.97 0-435.2-195.23-435.2-435.2s195.23-435.2 435.2-435.2c239.97 0 435.2 195.23 435.2 435.2s-195.23 435.2-435.2 435.2z"></path>
            <path class="path2"
                  d="M793.6 512h-281.6v-281.6c0-14.138-11.462-25.6-25.6-25.6s-25.6 11.462-25.6 25.6v281.6h-281.6c-14.138 0-25.6 11.461-25.6 25.6s11.462 25.6 25.6 25.6h281.6v281.6c0 14.139 11.462 25.6 25.6 25.6s25.6-11.461 25.6-25.6v-281.6h281.6c14.139 0 25.6-11.461 25.6-25.6s-11.461-25.6-25.6-25.6z"></path>
        </symbol>
        <symbol id="lnr-user" viewBox="0 0 1024 1024">
            <title>user</title>
            <path class="path1"
                  d="M486.4 563.2c-155.275 0-281.6-126.325-281.6-281.6s126.325-281.6 281.6-281.6 281.6 126.325 281.6 281.6-126.325 281.6-281.6 281.6zM486.4 51.2c-127.043 0-230.4 103.357-230.4 230.4s103.357 230.4 230.4 230.4c127.042 0 230.4-103.357 230.4-230.4s-103.358-230.4-230.4-230.4z"></path>
            <path class="path2"
                  d="M896 1024h-819.2c-42.347 0-76.8-34.451-76.8-76.8 0-3.485 0.712-86.285 62.72-168.96 36.094-48.126 85.514-86.36 146.883-113.634 74.957-33.314 168.085-50.206 276.797-50.206 108.71 0 201.838 16.893 276.797 50.206 61.37 27.275 110.789 65.507 146.883 113.634 62.008 82.675 62.72 165.475 62.72 168.96 0 42.349-34.451 76.8-76.8 76.8zM486.4 665.6c-178.52 0-310.267 48.789-381 141.093-53.011 69.174-54.195 139.904-54.2 140.61 0 14.013 11.485 25.498 25.6 25.498h819.2c14.115 0 25.6-11.485 25.6-25.6-0.006-0.603-1.189-71.333-54.198-140.507-70.734-92.304-202.483-141.093-381.002-141.093z"></path>
        </symbol>
        <symbol id="lnr-rocket" viewBox="0 0 1024 1024">
            <title>rocket</title>
            <path class="path1"
                  d="M691.2 460.8c-70.579 0-128-57.421-128-128s57.421-128 128-128 128 57.421 128 128-57.421 128-128 128zM691.2 256c-42.347 0-76.8 34.453-76.8 76.8s34.453 76.8 76.8 76.8 76.8-34.453 76.8-76.8-34.453-76.8-76.8-76.8z"></path>
            <path class="path2"
                  d="M25.603 1024c-6.675 0-13.219-2.613-18.106-7.499-7.034-7.034-9.355-17.502-5.957-26.85 78.781-216.648 161.613-326.499 246.195-326.499 27.883 0 53.979 11.96 77.566 35.546 37.283 37.283 38.611 74.394 33.162 98.96-17.125 77.187-126.171 152.822-324.115 224.802-2.853 1.038-5.813 1.541-8.746 1.541zM247.736 714.354c-25.354 0-55.19 22.214-86.282 64.237-30.578 41.33-61.274 100.205-91.525 175.477 68.352-27.478 123.302-55.379 163.806-83.205 54.648-37.542 70.808-66.562 74.742-84.294 3.944-17.779-2.395-34.682-19.382-51.667-13.826-13.826-27.354-20.547-41.36-20.547z"></path>
            <path class="path3"
                  d="M998.4 0c-132.848 0-251.256 22.534-351.939 66.981-82.997 36.638-154.075 88.075-211.258 152.882-10.674 12.098-20.552 24.334-29.691 36.586-44.142 2.942-89.275 20.47-134.362 52.221-38.13 26.851-76.459 64.014-113.923 110.458-62.965 78.054-101.706 154.987-103.325 158.226-5.605 11.211-2.25 24.814 7.904 32.166 4.501 3.258 9.758 4.856 14.992 4.856 6.573 0 13.109-2.52 18.064-7.434 0.243-0.24 24.714-24.299 66.469-47.926 34.41-19.474 87.461-42.336 151.613-46.384 16.219 41.541 62.662 91.181 84.954 113.47 22.291 22.291 71.931 68.734 113.472 84.955-4.046 64.152-26.91 117.202-46.382 151.611-23.629 41.757-47.686 66.227-47.89 66.432-8.878 8.878-10.006 22.885-2.666 33.070 4.952 6.87 12.77 10.634 20.782 10.634 3.867 0 7.779-0.877 11.434-2.704 3.237-1.619 80.17-40.36 158.226-103.325 46.443-37.464 83.606-75.794 110.458-113.922 31.75-45.088 49.278-90.221 52.221-134.363 12.251-9.139 24.49-19.019 36.586-29.693 64.806-57.181 116.243-128.259 152.883-211.258 44.443-100.682 66.979-219.091 66.979-351.939v-25.6h-25.6zM159.102 502.187c48.797-70.8 123.384-158.595 207.446-186.232-33.222 58.203-50.422 111.691-56.611 145.555-59.323 3.626-110.467 20.89-150.835 40.677zM521.87 864.781c19.762-40.35 36.995-91.453 40.619-150.718 33.859-6.187 87.336-23.384 145.528-56.597-27.658 83.92-115.381 158.49-186.147 207.315zM770.262 550.405c-106.48 93.952-216.794 115.195-232.662 115.195-0.102 0-10.581-0.23-38.867-20.136-19.728-13.883-42.682-33.618-64.63-55.566-21.95-21.95-41.683-44.902-55.566-64.632-19.906-28.285-20.136-38.763-20.136-38.866 0-15.869 21.243-126.182 115.197-232.662 112.416-127.406 284.533-197.059 498.894-202.227-5.17 214.358-74.822 386.477-202.229 498.894z"></path>
        </symbol>
    </defs>
</svg>
